<svg xmlns="http://www.w3.org/2000/svg" width="65" height="68" fill="none" viewBox="0 0 65 68"><path fill="#fff" fill-rule="evenodd" stroke="#000" stroke-linecap="round" stroke-linejoin="round" stroke-width="8" d="M37.9664 11.3824C35.663 1.49179 23.9144 3.18816 19.5394 6.98658C4.50601 20.0389 -0.0391464 39.9554 11.4777 54.2418C22.9945 68.5283 43.7248 65.2314 51.7865 56.4398C59.8483 47.6481 61 38.8564 61 38.8564H42.5731C42.5731 38.8564 37.9664 46.5491 29.9046 43.2523C25.3817 41.4026 24.4786 32.2177 27.6012 25.6689C30.7524 19.0603 39.1233 16.3502 37.9664 11.3824Z" clip-rule="evenodd"/><ellipse cx="15" cy="49.5" fill="#000" rx="6" ry="7.5" transform="rotate(-30 14.9999 49.5001)"/><ellipse cx="40" cy="58.5" fill="#000" rx="6" ry="7.5" transform="rotate(-105 40.0001 58.4996)"/><ellipse cx="12" cy="22.5" fill="#000" rx="6" ry="7.5" transform="rotate(-150 12.0001 22.4999)"/></svg>