<svg xmlns="http://www.w3.org/2000/svg" width="1080" height="1080" fill="none" viewBox="0 0 1080 1080"><g id="Mouth/ 17"><g id="Group"><path id="Path" fill-rule="evenodd" stroke="#000" stroke-linecap="round" stroke-linejoin="round" stroke-width="12" d="M696 748.043C696 748.043 652.693 751.692 624.619 750.391C596.544 749.09 544 741 544 741C544 741 567.514 813 621.26 813C650.652 813 664.489 801.44 679.204 779.348C685.215 770.324 696 748.043 696 748.043Z" clip-rule="evenodd"/><path id="Path_2" stroke="#000" stroke-linecap="round" stroke-linejoin="round" stroke-width="12" d="M708 745.444C708 745.444 660.212 753.222 622.485 750.111C584.758 747 542 740 542 740"/><path id="Path_3" stroke="#000" stroke-linecap="round" stroke-linejoin="round" stroke-width="12" d="M537 745C537 745 539.438 740.385 542.688 738.077C545.938 735.769 550 735 550 735"/><path id="Path_4" stroke="#000" stroke-linecap="round" stroke-linejoin="round" stroke-width="12" d="M569 788C569 788 588.349 777 625.365 777C662.381 777 675 786.429 675 786.429"/></g></g></svg>