<svg xmlns="http://www.w3.org/2000/svg" xmlns:xlink="http://www.w3.org/1999/xlink" width="1080" height="1080" version="1.1" viewBox="0 0 1080 1080"><title>Beard/ 5</title><g id="Beard/-5" fill="none" fill-rule="evenodd" stroke="none" stroke-linecap="round" stroke-linejoin="round" stroke-width="1"><g id="Group" stroke="#000" stroke-width="16" transform="translate(488.471351, 711.000000)"><line id="Path" x1="148.936" x2="148.936" y1="0" y2="24" transform="translate(148.935635, 12.000000) rotate(5.000000) translate(-148.935635, -12.000000)"/><line id="Path" x1="175.027" x2="175.027" y1="0" y2="24" transform="translate(175.027373, 12.000000) scale(-1, 1) rotate(5.000000) translate(-175.027373, -12.000000)"/><line id="Path" x1="122.22" x2="122.22" y1="2" y2="26" transform="translate(122.219689, 14.000000) rotate(8.000000) translate(-122.219689, -14.000000)"/><line id="Path" x1="201.743" x2="201.743" y1="3" y2="27" transform="translate(201.743319, 15.000000) scale(-1, 1) rotate(8.000000) translate(-201.743319, -15.000000)"/><line id="Path" x1="93.793" x2="93.793" y1="7" y2="27" transform="translate(93.793238, 17.000000) rotate(16.000000) translate(-93.793238, -17.000000)"/><line id="Path" x1="230.17" x2="230.17" y1="12" y2="32" transform="translate(230.169770, 22.000000) scale(-1, 1) rotate(16.000000) translate(-230.169770, -22.000000)"/><line id="Path" x1="63.747" x2="63.428" y1="6.595" y2="24.108" transform="translate(63.928374, 15.108303) rotate(19.000000) translate(-63.928374, -15.108303)"/><line id="Path" x1="34.152" x2="35.885" y1="17.813" y2="35.448" transform="translate(35.358708, 26.591101) rotate(22.000000) translate(-35.358708, -26.591101)"/><line id="Path" x1="5.5" x2="9.443" y1="32.714" y2="57.142" transform="translate(7.500000, 45.213998) rotate(22.000000) translate(-7.500000, -45.213998)"/></g></g></svg>