<svg xmlns="http://www.w3.org/2000/svg" width="534" height="178" fill="none" viewBox="0 0 534 178"><path fill="#fff" fill-rule="evenodd" stroke="#000" stroke-linecap="round" stroke-linejoin="round" stroke-width="12" d="M527.209 22.2168C527.813 13.2841 520.652 6 511.699 6H177C168.163 6 161 13.1634 161 22V97.7598C161 102.706 163.26 107.352 167.249 110.275C187.881 125.396 254.959 172 297.94 172C349.244 172 341.761 110.343 388.321 110.343C434.881 110.343 412.97 172 469.116 162.514C513.7 154.982 524.608 60.7171 527.209 22.2168Z" clip-rule="evenodd"/><path fill="#000" fill-rule="evenodd" d="M505.642 31.9945C505.893 27.5088 502.3 23.8467 497.807 23.8467L187 23.8467C182.582 23.8467 179 27.4284 179 31.8467V83.3487C179 85.7589 180.047 88.0083 181.946 89.493C196.566 100.927 262.245 150.47 302.546 150.47C333.607 150.47 325.397 95.489 384.087 90.4907C442.777 85.4924 426.644 145.472 464.954 142.14C497.033 139.35 504.169 58.2882 505.642 31.9945Z" clip-rule="evenodd"/><mask id="mask0_0_1158" width="327" height="128" x="179" y="23" maskUnits="userSpaceOnUse" style="mask-type:alpha"><path fill="#fff" fill-rule="evenodd" d="M505.642 31.9945C505.893 27.5088 502.3 23.8467 497.807 23.8467L187 23.8467C182.582 23.8467 179 27.4284 179 31.8467V83.3487C179 85.7589 180.047 88.0083 181.946 89.493C196.566 100.927 262.245 150.47 302.546 150.47C333.607 150.47 325.397 95.489 384.087 90.4907C442.777 85.4924 426.644 145.472 464.954 142.14C497.033 139.35 504.169 58.2882 505.642 31.9945Z" clip-rule="evenodd"/></mask><g mask="url(#mask0_0_1158)"><path stroke="#fff" stroke-linecap="round" stroke-linejoin="round" stroke-width="16" d="M393.808 14.7422L503.264 102.828"/><path stroke="#fff" stroke-linecap="round" stroke-linejoin="round" stroke-width="8" d="M418.436 0.978516L527.892 89.0645"/></g><path fill="#000" fill-rule="evenodd" stroke="#000" stroke-linecap="round" stroke-linejoin="round" stroke-width="12" d="M161 14.0361L6 44.9996V88.8749L161 73.9995V14.0361Z" clip-rule="evenodd"/></svg>