<svg xmlns="http://www.w3.org/2000/svg" width="537" height="145" fill="none" viewBox="0 0 537 145"><path stroke="#000" stroke-linecap="round" stroke-linejoin="round" stroke-width="8" d="M309.966 18.5292H399.378"/><path stroke="#000" stroke-linecap="round" stroke-linejoin="round" stroke-width="8" d="M308 53.7647C308 53.7647 330.694 37 353 37C375.306 37 397.412 53.7647 397.412 53.7647"/><path stroke="#000" stroke-linecap="round" stroke-linejoin="round" stroke-width="16" d="M225.484 53.5689L8.82675 91.7715"/><path fill="#0C0C0C" fill-rule="evenodd" d="M185.242 34.6204C217.983 -11.8648 313.089 -1.73762 334.362 40.2821C355.636 82.3018 278.647 141 231.916 141C185.186 141 152.501 81.1056 185.242 34.6204Z" clip-rule="evenodd"/><mask id="mask0_0_1174" width="166" height="137" x="172" y="4" maskUnits="userSpaceOnUse" style="mask-type:alpha"><path fill="#fff" fill-rule="evenodd" d="M185.242 34.6204C217.983 -11.8648 313.089 -1.73762 334.362 40.2821C355.636 82.3018 278.647 141 231.916 141C185.186 141 152.501 81.1056 185.242 34.6204Z" clip-rule="evenodd"/></mask><g mask="url(#mask0_0_1174)"><rect width="210" height="28" x="264.624" y="-24.933" fill="#fff" transform="rotate(60 264.624 -24.9326)"/></g><path fill="#0C0C0C" fill-rule="evenodd" d="M519.758 34.6204C487.017 -11.8648 391.911 -1.73762 370.638 40.2821C349.364 82.3018 426.353 141 473.084 141C519.814 141 552.499 81.1056 519.758 34.6204Z" clip-rule="evenodd"/><mask id="mask1_0_1174" width="166" height="137" x="367" y="4" maskUnits="userSpaceOnUse" style="mask-type:alpha"><path fill="#fff" fill-rule="evenodd" d="M519.758 34.6204C487.017 -11.8648 391.911 -1.73762 370.638 40.2821C349.364 82.3018 426.353 141 473.084 141C519.814 141 552.499 81.1056 519.758 34.6204Z" clip-rule="evenodd"/></mask><g mask="url(#mask1_0_1174)"><rect width="210" height="28" x="454.624" y="-24.933" fill="#fff" transform="rotate(60 454.624 -24.9326)"/></g><path fill-rule="evenodd" stroke="#000" stroke-linecap="round" stroke-linejoin="round" stroke-width="8" d="M185.242 34.6204C217.983 -11.8648 313.089 -1.73762 334.362 40.2821C355.636 82.3018 278.647 141 231.916 141C185.186 141 152.501 81.1056 185.242 34.6204Z" clip-rule="evenodd"/><path fill-rule="evenodd" stroke="#000" stroke-linecap="round" stroke-linejoin="round" stroke-width="8" d="M519.758 34.6204C487.017 -11.8648 391.911 -1.73762 370.638 40.2821C349.364 82.3018 426.353 141 473.084 141C519.814 141 552.499 81.1056 519.758 34.6204Z" clip-rule="evenodd"/></svg>