<svg xmlns="http://www.w3.org/2000/svg" xmlns:xlink="http://www.w3.org/1999/xlink" width="538" height="152" version="1.1" viewBox="0 0 538 152"><title>glasses-8</title><g id="All-customizable-items" fill="none" fill-rule="evenodd" stroke="none" stroke-linecap="round" stroke-linejoin="round" stroke-width="1"><g id="Glasses/-8" stroke="#000" transform="translate(-285.000000, -471.000000)"><g id="glasses-8" transform="translate(293.000000, 475.000000)"><path id="Path" fill="#0C0C0C" stroke-width="8" d="M328.31869,48.9411765 C333.965749,25.4117647 327.377514,0 252.083396,0 C176.789279,0 173.024573,30.1176471 170.201043,48.9411765 C167.377514,67.7647059 157.024573,140.235294 227.612808,143.058824 C298.201043,145.882353 322.671631,72.4705882 328.31869,48.9411765 Z"/><path id="Path" fill="#0C0C0C" stroke-width="8" d="M523.46091,48.9411765 C529.107969,25.4117647 522.519734,3.63797881e-12 447.225616,3.63797881e-12 C371.931498,3.63797881e-12 368.166792,30.1176471 365.343263,48.9411765 C362.519734,67.7647059 352.166792,140.235294 422.755028,143.058824 C493.343263,145.882353 517.813851,72.4705882 523.46091,48.9411765 Z" transform="translate(444.072807, 71.569037) scale(-1, 1) translate(-444.072807, -71.569037)"/><line id="Path" x1="301.966" x2="391.378" y1="7.529" y2="7.529" stroke-width="8"/><path id="Path" stroke-width="8" d="M301.965749,35.7647059 C317.212807,34.5098039 332.271631,33.8823529 347.14222,33.8823529 C362.012808,33.8823529 376.757907,34.5098039 391.377514,35.7647059"/><line id="Path" x1="217" x2="1.311" y1="40" y2="83.339" stroke-width="16" transform="translate(109.155552, 61.669679) rotate(1.361411) translate(-109.155552, -61.669679)"/></g></g></g></svg>