<svg xmlns="http://www.w3.org/2000/svg" xmlns:xlink="http://www.w3.org/1999/xlink" width="1080" height="1080" version="1.1" viewBox="0 0 1080 1080"><title>Eyes/ 10</title><g id="Eyes/-10" fill="none" fill-rule="evenodd" stroke="none" stroke-width="1"><g id="Group"><g transform="translate(520.000000, 512.000000) translate(140.000000, 0.000000)"><circle id="Oval" cx="52" cy="28" r="24" fill="#000"/><path id="Path" stroke="#000" stroke-linecap="round" stroke-linejoin="round" stroke-width="12" d="M1,16 C24.2727273,8 41.7272727,4 53.3636364,4 C65,4 79.5454545,8 97,16" transform="translate(49.000000, 10.000000) rotate(-4.000000) translate(-49.000000, -10.000000)"/></g><g transform="translate(520.000000, 512.000000)"><circle id="Oval" cx="46" cy="28" r="24" fill="#000" transform="translate(46.000000, 28.000000) scale(-1, 1) translate(-46.000000, -28.000000)"/><path id="Path" stroke="#000" stroke-linecap="round" stroke-linejoin="round" stroke-width="12" d="M1,16 C24.2727273,8 41.7272727,4 53.3636364,4 C65,4 79.5454545,8 97,16" transform="translate(49.000000, 10.000000) scale(-1, 1) rotate(-4.000000) translate(-49.000000, -10.000000)"/></g></g></g></svg>