<svg xmlns="http://www.w3.org/2000/svg" width="1080" height="1080" fill="none" viewBox="0 0 1080 1080"><g id="Eyes/ 13"><g id="Group 1"><g id="Group"><path id="Path" fill="#000" fill-rule="evenodd" stroke="#000" stroke-linecap="round" stroke-linejoin="round" stroke-width="6" d="M534 524.531C534 524.531 562.569 539.132 586.169 536.615C609.769 534.097 599.832 520 599.832 520C599.832 520 614.738 534.601 593.622 539.132C572.506 543.664 534 524.531 534 524.531Z" clip-rule="evenodd"/><path id="Path_2" stroke="#000" stroke-linecap="round" stroke-linejoin="round" stroke-width="4" d="M540 529L536 537"/><path id="Path_3" stroke="#000" stroke-linecap="round" stroke-linejoin="round" stroke-width="4" d="M554 534L551 543"/><path id="Path_4" stroke="#000" stroke-linecap="round" stroke-linejoin="round" stroke-width="4" d="M568 537L566 547"/><path id="Path_5" stroke="#000" stroke-linecap="round" stroke-linejoin="round" stroke-width="4" d="M582 539L581 549"/><path id="Path_6" stroke="#000" stroke-linecap="round" stroke-linejoin="round" stroke-width="4" d="M594 538L596 547"/><path id="Path_7" stroke="#000" stroke-linecap="round" stroke-linejoin="round" stroke-width="4" d="M604 534L608 540"/></g><g id="Group_2"><path id="Path_8" fill="#000" fill-rule="evenodd" stroke="#000" stroke-linecap="round" stroke-linejoin="round" stroke-width="6" d="M672 524.531C672 524.531 700.569 539.132 724.169 536.615C747.769 534.097 737.832 520 737.832 520C737.832 520 752.738 534.601 731.622 539.132C710.506 543.664 672 524.531 672 524.531Z" clip-rule="evenodd"/><path id="Path_9" stroke="#000" stroke-linecap="round" stroke-linejoin="round" stroke-width="4" d="M678 529L674 537"/><path id="Path_10" stroke="#000" stroke-linecap="round" stroke-linejoin="round" stroke-width="4" d="M692 534L689 543"/><path id="Path_11" stroke="#000" stroke-linecap="round" stroke-linejoin="round" stroke-width="4" d="M706 537L704 547"/><path id="Path_12" stroke="#000" stroke-linecap="round" stroke-linejoin="round" stroke-width="4" d="M720 539L719 549"/><path id="Path_13" stroke="#000" stroke-linecap="round" stroke-linejoin="round" stroke-width="4" d="M732 538L734 547"/><path id="Path_14" stroke="#000" stroke-linecap="round" stroke-linejoin="round" stroke-width="4" d="M742 534L746 540"/></g></g></g></svg>