<svg xmlns="http://www.w3.org/2000/svg" xmlns:xlink="http://www.w3.org/1999/xlink" width="1080" height="1080" version="1.1" viewBox="0 0 1080 1080"><title>Glasses/ 10</title><g id="Glasses/-10" fill="none" fill-rule="evenodd" stroke="none" stroke-width="1"><g id="Group" fill="#000" transform="translate(289.000000, 475.000000)"><rect id="Rectangle" width="300" height="23.4" x="201" y="0"/><path id="Rectangle" d="M329.571429,0 L370.642857,0 L370.642857,50.7333333 C363.797619,41.4888889 356.952381,36.8666667 350.107143,36.8666667 C343.261905,36.8666667 336.416667,41.4888889 329.571429,50.7333333 L329.571429,0 Z"/><path id="Path" stroke="#000" stroke-linecap="round" stroke-linejoin="round" stroke-width="16" d="M209.035714,16.4666667 L226.635493,91.6470116 C228.329435,98.8829668 234.782715,104 242.214302,104 L295.809254,104 C302.413177,104 308.338607,99.9426587 310.726587,93.7856009 L340.714286,16.4666667 L340.714286,16.4666667 L209.035714,16.4666667 Z"/><path id="Path" stroke="#000" stroke-linecap="round" stroke-linejoin="round" stroke-width="16" d="M359.5,16.4666667 L377.099778,91.6470116 C378.793721,98.8829668 385.247,104 392.678588,104 L446.273539,104 C452.877463,104 458.802893,99.9426587 461.190872,93.7856009 L491.178571,16.4666667 L491.178571,16.4666667 L359.5,16.4666667 Z" transform="translate(425.339286, 60.233333) scale(-1, 1) translate(-425.339286, -60.233333)"/><polygon id="Path" stroke="#000" stroke-linecap="round" stroke-linejoin="round" stroke-width="4" points="201 2 4 66 0 75 201 22"/></g></g></svg>