<svg xmlns="http://www.w3.org/2000/svg" width="1080" height="1080" fill="none" viewBox="0 0 1080 1080"><g id="Glasses/ 13"><g id="Group"><path id="Path" stroke="#000" stroke-linecap="round" stroke-linejoin="round" stroke-width="8" d="M594.966 482.529H684.378"/><path id="Path_2" stroke="#000" stroke-linecap="round" stroke-linejoin="round" stroke-width="8" d="M593 517.765C593 517.765 615.694 501 638 501C660.306 501 682.412 517.765 682.412 517.765"/><path id="Path_3" stroke="#000" stroke-linecap="round" stroke-linejoin="round" stroke-width="16" d="M510.484 517.569L293.827 555.771"/><g id="Rectangle"><path id="Mask" fill="#0C0C0C" fill-rule="evenodd" d="M470.242 498.62C502.983 452.135 598.089 462.262 619.362 504.282C640.636 546.302 563.647 605 516.916 605C470.186 605 437.501 545.106 470.242 498.62Z" clip-rule="evenodd"/><mask id="mask0_0_1173" width="166" height="137" x="457" y="468" maskUnits="userSpaceOnUse" style="mask-type:alpha"><path id="Mask_2" fill="#fff" fill-rule="evenodd" d="M470.242 498.62C502.983 452.135 598.089 462.262 619.362 504.282C640.636 546.302 563.647 605 516.916 605C470.186 605 437.501 545.106 470.242 498.62Z" clip-rule="evenodd"/></mask><g mask="url(#mask0_0_1173)"><rect id="Rectangle_2" width="210" height="28" x="549.624" y="439.067" fill="#fff" transform="rotate(60 549.624 439.067)"/></g></g><g id="Rectangle_3"><path id="Mask_3" fill="#0C0C0C" fill-rule="evenodd" d="M804.758 498.62C772.017 452.135 676.911 462.262 655.638 504.282C634.364 546.302 711.353 605 758.084 605C804.814 605 837.499 545.106 804.758 498.62Z" clip-rule="evenodd"/><mask id="mask1_0_1173" width="166" height="137" x="652" y="468" maskUnits="userSpaceOnUse" style="mask-type:alpha"><path id="Mask_4" fill="#fff" fill-rule="evenodd" d="M804.758 498.62C772.017 452.135 676.911 462.262 655.638 504.282C634.364 546.302 711.353 605 758.084 605C804.814 605 837.499 545.106 804.758 498.62Z" clip-rule="evenodd"/></mask><g mask="url(#mask1_0_1173)"><rect id="Rectangle_4" width="210" height="28" x="739.624" y="439.067" fill="#fff" transform="rotate(60 739.624 439.067)"/></g></g><path id="Path_4" fill-rule="evenodd" stroke="#000" stroke-linecap="round" stroke-linejoin="round" stroke-width="8" d="M470.242 498.62C502.983 452.135 598.089 462.262 619.362 504.282C640.636 546.302 563.647 605 516.916 605C470.186 605 437.501 545.106 470.242 498.62Z" clip-rule="evenodd"/><path id="Path_5" fill-rule="evenodd" stroke="#000" stroke-linecap="round" stroke-linejoin="round" stroke-width="8" d="M804.758 498.62C772.017 452.135 676.911 462.262 655.638 504.282C634.364 546.302 711.353 605 758.084 605C804.814 605 837.499 545.106 804.758 498.62Z" clip-rule="evenodd"/></g></g></svg>