<svg xmlns="http://www.w3.org/2000/svg" xmlns:xlink="http://www.w3.org/1999/xlink" width="1080" height="1080" version="1.1" viewBox="0 0 1080 1080"><title>Glasses/ 3</title><g id="Glasses/-3" fill="none" fill-rule="evenodd" stroke="none" stroke-linecap="round" stroke-linejoin="round" stroke-width="1"><g id="Group" stroke="#000" stroke-width="8" transform="translate(293.000000, 488.000000)"><path id="Path" d="M197.493245,10.4280671 C174.636102,27.3582996 188.604356,103.544346 244.477372,103.544346 C300.350388,103.544346 337.149222,42.6997481 325.747213,20.1024857 C314.345204,-2.49477675 220.350388,-6.50216547 197.493245,10.4280671 Z"/><path id="Path" d="M376.540864,10.4280671 C353.683721,27.3582996 367.651975,103.544346 423.524991,103.544346 C479.398007,103.544346 516.196841,42.6997481 504.794832,20.1024857 C493.392823,-2.49477675 399.398007,-6.50216547 376.540864,10.4280671 Z" transform="translate(436.458153, 51.772173) scale(-1, 1) translate(-436.458153, -51.772173)"/><line id="Path" x1="301.286" x2="392.714" y1="5.442" y2="5.442"/><line id="Path" x1="326.683" x2="367.317" y1="21.163" y2="21.163"/><line id="Path" x1="186.555" x2="1.26" y1="30.802" y2="69.986" transform="translate(94.259928, 50.646655) rotate(1.361411) translate(-94.259928, -50.646655)"/></g></g></svg>