<svg xmlns="http://www.w3.org/2000/svg" xmlns:xlink="http://www.w3.org/1999/xlink" width="372" height="204" version="1.1" viewBox="0 0 372 204"><title>beard-2</title><g id="All-customizable-items" fill="none" fill-rule="evenodd" stroke="none" stroke-linecap="round" stroke-linejoin="round" stroke-width="1"><g id="Beard/-2" stroke="#000" stroke-width="16" transform="translate(-361.000000, -662.000000)"><g id="beard-2" transform="translate(371.133645, 672.093579)"><line id="Path" x1="266.273" x2="266.273" y1="38.906" y2="62.906" transform="translate(266.273341, 50.906421) rotate(5.000000) translate(-266.273341, -50.906421)"/><line id="Path" x1="292.365" x2="292.365" y1="38.906" y2="62.906" transform="translate(292.365079, 50.906421) scale(-1, 1) rotate(5.000000) translate(-292.365079, -50.906421)"/><line id="Path" x1="239.557" x2="239.557" y1="40.906" y2="64.906" transform="translate(239.557395, 52.906421) rotate(8.000000) translate(-239.557395, -52.906421)"/><line id="Path" x1="319.081" x2="319.081" y1="41.906" y2="65.906" transform="translate(319.081025, 53.906421) scale(-1, 1) rotate(8.000000) translate(-319.081025, -53.906421)"/><line id="Path" x1="211.426" x2="210.217" y1="45.807" y2="63.436" transform="translate(210.925951, 54.807340) rotate(16.000000) translate(-210.925951, -54.807340)"/><line id="Path" x1="347.507" x2="347.507" y1="50.906" y2="70.906" transform="translate(347.507476, 60.906421) scale(-1, 1) rotate(16.000000) translate(-347.507476, -60.906421)"/><line id="Path" x1="181.845" x2="181.526" y1="48.15" y2="65.663" transform="translate(182.025756, 56.662979) rotate(19.000000) translate(-182.025756, -56.662979)"/><line id="Path" x1="151.49" x2="153.222" y1="56.719" y2="74.354" transform="translate(152.696414, 65.497522) rotate(22.000000) translate(-152.696414, -65.497522)"/><line id="Path" x1="122.838" x2="126.78" y1="71.62" y2="96.048" transform="translate(124.837706, 84.120419) rotate(22.000000) translate(-124.837706, -84.120419)"/><line id="Path" x1="9.589" x2="5.143" y1="-1.014" y2="11.202" transform="translate(7.500000, 5.000000) rotate(70.000000) translate(-7.500000, -5.000000)"/><line id="Path" x1="13.993" x2="12.024" y1="28.409" y2="42.591" transform="translate(13.004093, 35.351932) rotate(70.000000) translate(-13.004093, -35.351932)"/><line id="Path" x1="20.994" x2="18.856" y1="53.296" y2="72.095" transform="translate(19.994181, 62.795718) rotate(70.000000) translate(-19.994181, -62.795718)"/><line id="Path" x1="28.866" x2="28.866" y1="80.906" y2="100.906" transform="translate(28.866355, 90.906421) rotate(70.000000) translate(-28.866355, -90.906421)"/><line id="Path" x1="46.2" x2="50.981" y1="108.632" y2="128.886" transform="translate(48.481151, 118.386179) rotate(70.000000) translate(-48.481151, -118.386179)"/><line id="Path" x1="66.824" x2="74.169" y1="131.559" y2="150.617" transform="translate(70.669285, 140.617497) rotate(70.000000) translate(-70.669285, -140.617497)"/><line id="Path" x1="86.899" x2="97.834" y1="152.384" y2="167.428" transform="translate(92.333501, 159.428388) rotate(70.000000) translate(-92.333501, -159.428388)"/><line id="Path" x1="114.537" x2="129.593" y1="164.255" y2="175.956" transform="translate(122.092672, 169.956143) rotate(70.000000) translate(-122.092672, -169.956143)"/><line id="Path" x1="146.239" x2="160.954" y1="168.97" y2="178.099" transform="translate(153.454313, 173.099239) rotate(70.000000) translate(-153.454313, -173.099239)"/><line id="Path" x1="174.944" x2="191.788" y1="168.323" y2="177.49" transform="translate(183.288254, 172.489712) rotate(70.000000) translate(-183.288254, -172.489712)"/><line id="Path" x1="204.901" x2="223.711" y1="169.193" y2="173.461" transform="translate(214.271259, 171.040294) rotate(70.000000) translate(-214.271259, -171.040294)"/><line id="Path" x1="234.715" x2="250.464" y1="164.529" y2="165.164" transform="translate(242.733894, 164.396280) rotate(70.000000) translate(-242.733894, -164.396280)"/><line id="Path" x1="260.929" x2="276.137" y1="154.234" y2="153.384" transform="translate(268.630203, 154.095799) rotate(70.000000) translate(-268.630203, -154.095799)"/><line id="Path" x1="286.893" x2="301.056" y1="141.147" y2="139.152" transform="translate(294.049495, 140.363996) rotate(70.000000) translate(-294.049495, -140.363996)"/></g></g></g></svg>