<svg xmlns="http://www.w3.org/2000/svg" width="1080" height="1080" fill="none" viewBox="0 0 1080 1080"><ellipse cx="577" cy="619" fill="#fff" stroke="#000" stroke-linecap="round" stroke-linejoin="round" stroke-width="24" rx="211" ry="196"/><ellipse cx="707" cy="625.5" fill="#000" stroke="#000" stroke-linecap="round" stroke-linejoin="round" stroke-width="8" rx="42" ry="58.5"/><path fill="#fff" fill-rule="evenodd" stroke="#fff" stroke-linecap="round" stroke-linejoin="round" stroke-width="2" d="M700 572.238C700 572.238 727.523 597.376 731.34 616.518C735.157 635.66 718.804 666.537 718.804 666.537C718.804 666.537 746.227 645.217 739.959 613.238C733.691 581.258 700 572.238 700 572.238Z" clip-rule="evenodd"/><ellipse cx="531" cy="625.5" fill="#000" stroke="#000" stroke-linecap="round" stroke-linejoin="round" stroke-width="8" rx="42" ry="58.5"/><path fill="#fff" fill-rule="evenodd" stroke="#fff" stroke-linecap="round" stroke-linejoin="round" stroke-width="2" d="M524 572.238C524 572.238 551.523 597.376 555.34 616.518C559.157 635.66 542.804 666.537 542.804 666.537C542.804 666.537 570.227 645.217 563.959 613.238C557.691 581.258 524 572.238 524 572.238Z" clip-rule="evenodd"/><path fill="#000" fill-rule="evenodd" stroke="#000" stroke-linecap="round" stroke-linejoin="round" stroke-width="8" d="M627.08 670L616.019 713.993C614.603 719.625 619.47 724.842 625.187 723.819L645.386 720.204C650.952 719.207 653.756 712.907 650.77 708.105L627.08 670Z" clip-rule="evenodd"/><path stroke="#000" stroke-linecap="round" stroke-linejoin="round" stroke-width="12" d="M596 765L606 809"/><path stroke="#000" stroke-linecap="round" stroke-linejoin="round" stroke-width="12" d="M638 752L649 799"/><path stroke="#000" stroke-linecap="round" stroke-linejoin="round" stroke-width="12" d="M681 743L692 787"/><path stroke="#000" stroke-linecap="round" stroke-linejoin="round" stroke-width="24" d="M366 624C366 624 339.189 605.338 304 592C268.811 578.662 242 577 242 577"/></svg>