<svg xmlns="http://www.w3.org/2000/svg" xmlns:xlink="http://www.w3.org/1999/xlink" width="570" height="416" version="1.1" viewBox="0 0 570 416"><title>编组</title><g id="All-customizable-items" fill="none" fill-rule="evenodd" stroke="none" stroke-linecap="round" stroke-linejoin="round" stroke-width="1"><g id="Festival/-3" transform="translate(-230.000000, -411.000000)"><g id="编组" transform="translate(242.000000, 423.000000)"><g id="Group" transform="translate(124.000000, 0.000000)"><path id="Oval" fill="#FFF" stroke="#000" stroke-width="24" d="M214.516667,392 C254.164929,392 308.549174,373.472385 340.2375,350.35 C356.358303,338.586948 350.273262,309.112416 363.220501,297.865072 C399.62479,266.240449 422,223.295523 422,175.991667 C422,78.7941531 327.532082,0 211,0 C94.4679178,0 0,78.7941531 0,175.991667 C0,258.760477 68.5026639,328.184236 160.798909,346.971826 C176.888486,350.246979 197.2178,392 214.516667,392 Z"/><g transform="translate(299.000000, 144.000000)"><ellipse id="Oval" cx="42" cy="58.5" fill="#000" stroke="#000" stroke-width="8" rx="42" ry="58.5"/><path id="Path" fill="#FFF" stroke="#FFF" stroke-width="2" d="M35,5.23880597 C53.3487678,21.997017 63.7955261,36.7567834 66.3402747,49.5181051 C68.8850233,62.2794269 64.70632,78.9524963 53.8041648,99.5373134 C72.0859917,85.3242051 79.1375535,67.5578196 74.9588502,46.238157 C70.780147,24.9184945 57.4605302,11.2520441 35,5.23880597 Z"/></g><g transform="translate(123.000000, 144.000000)"><ellipse id="Oval" cx="42" cy="58.5" fill="#000" stroke="#000" stroke-width="8" rx="42" ry="58.5"/><path id="Path" fill="#FFF" stroke="#FFF" stroke-width="2" d="M35,5.23880597 C53.3487678,21.997017 63.7955261,36.7567834 66.3402747,49.5181051 C68.8850233,62.2794269 64.70632,78.9524963 53.8041648,99.5373134 C72.0859917,85.3242051 79.1375535,67.5578196 74.9588502,46.238157 C70.780147,24.9184945 57.4605302,11.2520441 35,5.23880597 Z"/></g><path id="Path" fill="#000" stroke="#000" stroke-width="8" d="M261.08,247 L250.018837,290.993261 C248.941487,295.278176 251.541732,299.625151 255.826648,300.702501 C256.925807,300.978861 258.071143,301.018517 259.186785,300.818843 L279.385775,297.203682 C283.734944,296.42528 286.629622,292.268562 285.85122,287.919393 C285.672566,286.9212 285.305765,285.966074 284.770353,285.104888 L261.08,247 L261.08,247 Z"/><line id="Path" x1="230" x2="240" y1="342" y2="386" stroke="#000" stroke-width="12"/><line id="Path" x1="272" x2="283" y1="329" y2="376" stroke="#000" stroke-width="12"/><line id="Path" x1="315" x2="326" y1="320" y2="364" stroke="#000" stroke-width="12"/></g><path id="Path" stroke="#000" stroke-width="24" d="M124,201 C106.126083,188.558542 85.4594166,177.891876 62,169 C38.5405834,160.108124 17.8739167,155.108124 0,154"/></g></g></g></svg>