<svg xmlns="http://www.w3.org/2000/svg" xmlns:xlink="http://www.w3.org/1999/xlink" width="1080" height="1080" version="1.1" viewBox="0 0 1080 1080"><title>Hairstyle/ 30</title><g id="Hairstyle/-30" fill="none" fill-rule="evenodd" stroke="none" stroke-linecap="round" stroke-linejoin="round" stroke-width="1"><path id="Path" fill="#000" stroke="#000" stroke-width="12" d="M761,317 C805,388 820.125983,447 820.004537,556 C819.946997,603.166783 803.945484,773.166783 772,1066 L609,859 C645.320405,841.585441 670.320405,826.252108 684,813 C716,782 740.763406,753.438362 749,734 C774,675 778,605 766,552 C758,516.666667 680.53461,491.720366 649,463 C627.976927,443.85309 609.643593,419.85309 594,391 C570,427 542,458.666667 510,486 C490.019849,503.066379 412,543 400,559 C388,575 366,596 381,696 C387.274253,737.828352 404.607586,861.161685 433,1066 L206,860 C159.063506,643.42859 185.063506,407.761923 232,317 C278.467129,227.145696 379,176 515,176 C651,176 717,246 761,317 Z"/></g></svg>